<svg width="48" height="48" viewBox="0 0 48 48" fill="none" xmlns="http://www.w3.org/2000/svg">
<mask id="mask0_67_136" style="mask-type:alpha" maskUnits="userSpaceOnUse" x="0" y="0" width="48" height="48">
<rect width="48" height="48" fill="#D9D9D9"/>
</mask>
<g mask="url(#mask0_67_136)">
<path d="M9 39H14.15C14.575 39 14.9313 39.1447 15.219 39.434C15.5063 39.723 15.65 40.0813 15.65 40.509C15.65 40.9363 15.5063 41.2917 15.219 41.575C14.9313 41.8583 14.575 42 14.15 42H7.5C7.075 42 6.71883 41.8562 6.4315 41.5685C6.14383 41.2812 6 40.925 6 40.5V33.85C6 33.425 6.14467 33.0687 6.434 32.781C6.723 32.4937 7.08133 32.35 7.509 32.35C7.93633 32.35 8.29167 32.4937 8.575 32.781C8.85833 33.0687 9 33.425 9 33.85V39ZM39 39V33.85C39 33.425 39.1447 33.0687 39.434 32.781C39.723 32.4937 40.0813 32.35 40.509 32.35C40.9363 32.35 41.2917 32.4937 41.575 32.781C41.8583 33.0687 42 33.425 42 33.85V40.5C42 40.925 41.8563 41.2812 41.569 41.5685C41.2813 41.8562 40.925 42 40.5 42H33.85C33.425 42 33.0688 41.8553 32.7815 41.566C32.4938 41.277 32.35 40.9187 32.35 40.491C32.35 40.0637 32.4938 39.7083 32.7815 39.425C33.0688 39.1417 33.425 39 33.85 39H39ZM9 9V14.15C9 14.575 8.85533 14.9312 8.566 15.2185C8.277 15.5062 7.91867 15.65 7.491 15.65C7.06367 15.65 6.70833 15.5062 6.425 15.2185C6.14167 14.9312 6 14.575 6 14.15V7.5C6 7.075 6.14383 6.71867 6.4315 6.431C6.71883 6.14367 7.075 6 7.5 6H14.15C14.575 6 14.9313 6.14467 15.219 6.434C15.5063 6.723 15.65 7.08133 15.65 7.509C15.65 7.93633 15.5063 8.29167 15.219 8.575C14.9313 8.85833 14.575 9 14.15 9H9ZM39 9H33.85C33.425 9 33.0688 8.85533 32.7815 8.566C32.4938 8.277 32.35 7.91867 32.35 7.491C32.35 7.06367 32.4938 6.70833 32.7815 6.425C33.0688 6.14167 33.425 6 33.85 6H40.5C40.925 6 41.2813 6.14367 41.569 6.431C41.8563 6.71867 42 7.075 42 7.5V14.15C42 14.575 41.8553 14.9312 41.566 15.2185C41.277 15.5062 40.9187 15.65 40.491 15.65C40.0637 15.65 39.7083 15.5062 39.425 15.2185C39.1417 14.9312 39 14.575 39 14.15V9Z" fill="white"/>
</g>
</svg>
