<svg width="48" height="48" viewBox="0 0 48 48" fill="none" xmlns="http://www.w3.org/2000/svg">
<g clip-path="url(#clip0_1203_9)">
<path d="M15.0577 9.71455L15.0577 14.8645L9.90772 14.8645C9.48272 14.8645 9.12642 15.0062 8.83872 15.2895C8.55142 15.5729 8.40772 15.9282 8.40772 16.3555C8.40772 16.7832 8.55142 17.1415 8.83872 17.4305C9.12642 17.7199 9.48272 17.8645 9.90772 17.8645L16.5577 17.8645C16.9827 17.8645 17.3389 17.7209 17.6262 17.4335C17.9139 17.1459 18.0577 16.7895 18.0577 16.3645L18.0577 9.71455C18.0577 9.28955 17.9161 8.93335 17.6327 8.64605C17.3494 8.35835 16.9941 8.21455 16.5667 8.21455C16.1391 8.21455 15.7807 8.35835 15.4917 8.64605C15.2024 8.93335 15.0577 9.28955 15.0577 9.71455Z" fill="white"/>
<path d="M32.9423 38.2855L32.9423 33.1355L38.0923 33.1355C38.5173 33.1355 38.8736 32.9938 39.1613 32.7105C39.4486 32.4271 39.5923 32.0718 39.5923 31.6445C39.5923 31.2168 39.4486 30.8585 39.1613 30.5695C38.8736 30.2801 38.5173 30.1355 38.0923 30.1355L31.4423 30.1355C31.0173 30.1355 30.6611 30.2791 30.3738 30.5665C30.0861 30.8541 29.9423 31.2105 29.9423 31.6355L29.9423 38.2855C29.9423 38.7105 30.0839 39.0667 30.3673 39.354C30.6506 39.6417 31.0059 39.7855 31.4333 39.7855C31.8609 39.7855 32.2193 39.6417 32.5083 39.354C32.7976 39.0667 32.9423 38.7105 32.9423 38.2855Z" fill="white"/>
<path d="M38.0952 14.8645L32.9452 14.8645L32.9452 9.71453C32.9452 9.28953 32.8035 8.93323 32.5202 8.64553C32.2369 8.35823 31.8815 8.21453 31.4542 8.21453C31.0265 8.21453 30.6682 8.35823 30.3792 8.64553C30.0899 8.93323 29.9452 9.28953 29.9452 9.71453L29.9452 16.3645C29.9452 16.7895 30.0889 17.1457 30.3762 17.433C30.6639 17.7207 31.0202 17.8645 31.4452 17.8645L38.0952 17.8645C38.5202 17.8645 38.8764 17.7229 39.1637 17.4395C39.4514 17.1562 39.5952 16.8009 39.5952 16.3735C39.5952 15.9459 39.4514 15.5875 39.1637 15.2985C38.8764 15.0092 38.5202 14.8645 38.0952 14.8645Z" fill="white"/>
<path d="M9.90479 33.1355L15.0548 33.1355L15.0548 38.2855C15.0548 38.7105 15.1965 39.0668 15.4798 39.3545C15.7631 39.6418 16.1185 39.7855 16.5458 39.7855C16.9735 39.7855 17.3318 39.6418 17.6208 39.3545C17.9101 39.0668 18.0548 38.7105 18.0548 38.2855L18.0548 31.6355C18.0548 31.2105 17.9111 30.8543 17.6238 30.567C17.3361 30.2793 16.9798 30.1355 16.5548 30.1355L9.90479 30.1355C9.47979 30.1355 9.12359 30.2771 8.83629 30.5605C8.54859 30.8438 8.40479 31.1991 8.40479 31.6265C8.40479 32.0541 8.54859 32.4125 8.83629 32.7015C9.12359 32.9908 9.47979 33.1355 9.90479 33.1355Z" fill="white"/>
</g>
<defs>
<clipPath id="clip0_1203_9">
<rect width="48" height="48" fill="white"/>
</clipPath>
</defs>
</svg>
