<svg width="48" height="48" viewBox="0 0 48 48" fill="none" xmlns="http://www.w3.org/2000/svg">
<mask id="mask0_65_84" style="mask-type:alpha" maskUnits="userSpaceOnUse" x="0" y="0" width="48" height="48">
<rect width="48" height="48" fill="#D9D9D9"/>
</mask>
<g mask="url(#mask0_65_84)">
<path d="M16 35.1V12.6C16 12.1333 16.15 11.7667 16.45 11.5C16.75 11.2333 17.1 11.1 17.5 11.1C17.6333 11.1 17.7667 11.1167 17.9 11.15C18.0333 11.1833 18.1667 11.2333 18.3 11.3L36 22.6C36.2333 22.7667 36.4083 22.95 36.525 23.15C36.6417 23.35 36.7 23.5833 36.7 23.85C36.7 24.1167 36.6417 24.35 36.525 24.55C36.4083 24.75 36.2333 24.9333 36 25.1L18.3 36.4C18.1667 36.4667 18.0333 36.5167 17.9 36.55C17.7667 36.5833 17.6333 36.6 17.5 36.6C17.1 36.6 16.75 36.4667 16.45 36.2C16.15 35.9333 16 35.5667 16 35.1Z" fill="white"/>
</g>
</svg>
