<svg width="48" height="48" viewBox="0 0 48 48" fill="none" xmlns="http://www.w3.org/2000/svg">
<g clip-path="url(#clip0_1205_2)">
<mask id="mask0_1205_2" style="mask-type:alpha" maskUnits="userSpaceOnUse" x="0" y="0" width="48" height="48">
<path d="M48 0H0V48H48V0Z" fill="#D9D9D9"/>
</mask>
<g mask="url(#mask0_1205_2)">
<path d="M19.9982 32.1548V19.7011C19.9982 19.4428 20.0812 19.2399 20.2472 19.0922C20.4133 18.9446 20.607 18.8708 20.8284 18.8708C20.9022 18.8708 20.976 18.8801 21.0498 18.8985C21.1236 18.917 21.1974 18.9446 21.2712 18.9815L31.0681 25.2361C31.1973 25.3283 31.2941 25.4298 31.3587 25.5405C31.4233 25.6512 31.4556 25.7803 31.4556 25.9279C31.4556 26.0756 31.4233 26.2047 31.3587 26.3154C31.2941 26.4261 31.1973 26.5276 31.0681 26.6198L21.2712 32.8743C21.1974 32.9113 21.1236 32.9389 21.0498 32.9574C20.976 32.9758 20.9022 32.985 20.8284 32.985C20.607 32.985 20.4133 32.9113 20.2472 32.7636C20.0812 32.616 19.9982 32.4131 19.9982 32.1548Z" fill="white"/>
<path d="M24 44C21.5 44 19.1583 43.5333 16.975 42.6C14.7917 41.6667 12.8833 40.3833 11.25 38.75C9.61667 37.1167 8.33333 35.2083 7.4 33.025C6.46667 30.8417 6 28.5 6 26C6 25.575 6.14467 25.2187 6.434 24.931C6.723 24.6437 7.08133 24.5 7.509 24.5C7.93633 24.5 8.29167 24.6437 8.575 24.931C8.85833 25.2187 9 25.575 9 26C9 30.1787 10.4553 33.7233 13.366 36.634C16.2767 39.5447 19.8213 41 24 41C28.1787 41 31.7233 39.5447 34.634 36.634C37.5447 33.7233 39 30.1787 39 26C39 21.8213 37.5833 18.2767 34.75 15.366C31.9167 12.4553 28.4167 11 24.25 11H23.15L25.75 13.6C26.05 13.9 26.2 14.25 26.2 14.65C26.2 15.05 26.0565 15.4 25.7695 15.7C25.4565 16 25.1 16.15 24.7 16.15C24.3 16.15 23.95 16 23.65 15.7L18.4 10.45C18.1 10.15 17.95 9.79999 17.95 9.39999C17.95 8.99999 18.1 8.64999 18.4 8.34999L23.7 3.04999C23.9667 2.78333 24.3083 2.64999 24.725 2.64999C25.1417 2.64999 25.4892 2.78333 25.7675 3.04999C26.0225 3.31666 26.15 3.65833 26.15 4.07499C26.15 4.49166 26.0167 4.83333 25.75 5.09999L22.85 7.99999H24C26.5 7.99999 28.8417 8.46666 31.025 9.39999C33.2083 10.3333 35.1167 11.6167 36.75 13.25C38.3833 14.8833 39.6667 16.7917 40.6 18.975C41.5333 21.1583 42 23.5 42 26C42 28.5 41.5333 30.8417 40.6 33.025C39.6667 35.2083 38.3833 37.1167 36.75 38.75C35.1167 40.3833 33.2083 41.6667 31.025 42.6C28.8417 43.5333 26.5 44 24 44Z" fill="white"/>
</g>
</g>
<defs>
<clipPath id="clip0_1205_2">
<rect width="48" height="48" fill="white"/>
</clipPath>
</defs>
</svg>
