<svg width="48" height="48" viewBox="0 0 48 48" fill="none" xmlns="http://www.w3.org/2000/svg">
<g clip-path="url(#clip0_1202_2)">
<mask id="mask0_1202_2" style="mask-type:alpha" maskUnits="userSpaceOnUse" x="0" y="0" width="48" height="48">
<path d="M48 0H0V48H48V0Z" fill="#D9D9D9"/>
</mask>
<g mask="url(#mask0_1202_2)">
<path d="M14 30H7.5C7.06667 30 6.70833 29.8583 6.425 29.575C6.14167 29.2917 6 28.9333 6 28.5V19.5C6 19.0667 6.14167 18.7083 6.425 18.425C6.70833 18.1417 7.06667 18 7.5 18H14L21.45 10.55C21.9167 10.0833 22.4583 9.97499 23.075 10.225C23.6917 10.475 24 10.9333 24 11.6V36.4C24 37.0667 23.6917 37.525 23.075 37.775C22.4583 38.025 21.9167 37.9167 21.45 37.45L14 30ZM21 15.6L15.35 21H9V27H15.35L21 32.45V15.6Z" fill="white"/>
</g>
</g>
<defs>
<clipPath id="clip0_1202_2">
<rect width="48" height="48" fill="white"/>
</clipPath>
</defs>
</svg>
