<svg width="48" height="48" viewBox="0 0 48 48" fill="none" xmlns="http://www.w3.org/2000/svg">
<mask id="mask0_67_115" style="mask-type:alpha" maskUnits="userSpaceOnUse" x="0" y="0" width="48" height="48">
<rect width="48" height="48" fill="#D9D9D9"/>
</mask>
<g mask="url(#mask0_67_115)">
<path d="M39 23.95C39 20.8167 38.125 18 36.375 15.5C34.625 13 32.3333 11.1833 29.5 10.05C29.1 9.88333 28.8167 9.61666 28.65 9.24999C28.4833 8.88333 28.4833 8.51666 28.65 8.14999C28.8167 7.74999 29.1083 7.47499 29.525 7.32499C29.9417 7.17499 30.3667 7.18333 30.8 7.34999C34.1667 8.71666 36.875 10.9 38.925 13.9C40.975 16.9 42 20.25 42 23.95C42 27.65 40.975 31 38.925 34C36.875 37 34.1667 39.1833 30.8 40.55C30.3667 40.7167 29.9417 40.725 29.525 40.575C29.1083 40.425 28.8167 40.15 28.65 39.75C28.4833 39.3833 28.4833 39.0167 28.65 38.65C28.8167 38.2833 29.1 38.0167 29.5 37.85C32.3333 36.7167 34.625 34.9 36.375 32.4C38.125 29.9 39 27.0833 39 23.95ZM14 30H7.5C7.06667 30 6.70833 29.8583 6.425 29.575C6.14167 29.2917 6 28.9333 6 28.5V19.5C6 19.0667 6.14167 18.7083 6.425 18.425C6.70833 18.1417 7.06667 18 7.5 18H14L21.45 10.55C21.9167 10.0833 22.4583 9.97499 23.075 10.225C23.6917 10.475 24 10.9333 24 11.6V36.4C24 37.0667 23.6917 37.525 23.075 37.775C22.4583 38.025 21.9167 37.9167 21.45 37.45L14 30ZM33 24C33 25.7333 32.5667 27.3 31.7 28.7C30.8333 30.1 29.6167 31.1667 28.05 31.9C27.7833 32.0333 27.5417 32.0167 27.325 31.85C27.1083 31.6833 27 31.4667 27 31.2V16.75C27 16.4833 27.1083 16.2667 27.325 16.1C27.5417 15.9333 27.7833 15.9167 28.05 16.05C29.6167 16.7833 30.8333 17.8667 31.7 19.3C32.5667 20.7333 33 22.3 33 24ZM21 15.6L15.35 21H9V27H15.35L21 32.45V15.6Z" fill="white"/>
</g>
</svg>
