<svg width="49" height="48" viewBox="0 0 49 48" fill="none" xmlns="http://www.w3.org/2000/svg">
<path d="M39.514 23.95C39.514 20.8167 38.639 18 36.889 15.5C35.139 13 32.8473 11.1833 30.014 10.05C29.614 9.88333 29.3307 9.61666 29.164 9.24999C28.9973 8.88333 28.9973 8.51666 29.164 8.14999C29.3307 7.74999 29.6223 7.47499 30.039 7.32499C30.4557 7.17499 30.8807 7.18333 31.314 7.34999C34.6807 8.71666 37.389 10.9 39.439 13.9C41.489 16.9 42.514 20.25 42.514 23.95C42.514 27.65 41.489 31 39.439 34C37.389 37 34.6807 39.1833 31.314 40.55C30.8807 40.7167 30.4557 40.725 30.039 40.575C29.6223 40.425 29.3307 40.15 29.164 39.75C28.9973 39.3833 28.9973 39.0167 29.164 38.65C29.3307 38.2833 29.614 38.0167 30.014 37.85C32.8473 36.7167 35.139 34.9 36.889 32.4C38.639 29.9 39.514 27.0833 39.514 23.95ZM14.514 30H8.01401C7.58068 30 7.22234 29.8583 6.93901 29.575C6.65568 29.2917 6.51401 28.9333 6.51401 28.5V19.5C6.51401 19.0667 6.65568 18.7083 6.93901 18.425C7.22234 18.1417 7.58068 18 8.01401 18H14.514L21.964 10.55C22.4307 10.0833 22.9723 9.97499 23.589 10.225C24.2057 10.475 24.514 10.9333 24.514 11.6V36.4C24.514 37.0667 24.2057 37.525 23.589 37.775C22.9723 38.025 22.4307 37.9167 21.964 37.45L14.514 30ZM33.514 24C33.514 25.7333 33.0807 27.3 32.214 28.7C31.3473 30.1 30.1307 31.1667 28.564 31.9C28.2973 32.0333 28.0557 32.0167 27.839 31.85C27.6223 31.6833 27.514 31.4667 27.514 31.2V16.75C27.514 16.4833 27.6223 16.2667 27.839 16.1C28.0557 15.9333 28.2973 15.9167 28.564 16.05C30.1307 16.7833 31.3473 17.8667 32.214 19.3C33.0807 20.7333 33.514 22.3 33.514 24ZM21.514 15.6L15.864 21H9.51401V27H15.864L21.514 32.45V15.6Z" fill="white"/>
<rect x="5.7757" y="7.38299" width="3" height="50" rx="1.5" transform="rotate(-45 5.7757 7.38299)" fill="white"/>
</svg>
